<svg xmlns="http://www.w3.org/2000/svg" style="display:none">
  <symbol id="ss-dashboard" viewBox="0 0 24 24"><path d="M4 13h7V4H4v9Zm9 7h7V4h-7v16ZM4 20h7v-5H4v5Z" fill="currentColor"/></symbol>
  <symbol id="ss-project" viewBox="0 0 24 24"><path d="M3 6.5A2.5 2.5 0 0 1 5.5 4h4.2l1.8 2H18a3 3 0 0 1 3 3v8.5A2.5 2.5 0 0 1 18.5 20h-13A2.5 2.5 0 0 1 3 17.5v-11Z" fill="currentColor"/></symbol>
  <symbol id="ss-agent" viewBox="0 0 24 24"><path d="M12 3a5 5 0 0 1 5 5v1h1.5A2.5 2.5 0 0 1 21 11.5v5A2.5 2.5 0 0 1 18.5 19h-13A2.5 2.5 0 0 1 3 16.5v-5A2.5 2.5 0 0 1 5.5 9H7V8a5 5 0 0 1 5-5Zm-3 9.5a1.5 1.5 0 1 0 0 3 1.5 1.5 0 0 0 0-3Zm6 0a1.5 1.5 0 1 0 0 3 1.5 1.5 0 0 0 0-3Z" fill="currentColor"/></symbol>
  <symbol id="ss-flow" viewBox="0 0 24 24"><path d="M6 5a3 3 0 1 0 0 6 3 3 0 0 0 0-6Zm12 8a3 3 0 1 0 0 6 3 3 0 0 0 0-6Zm-2-8h-4v2h4a2 2 0 0 1 2 2v2h2V9a4 4 0 0 0-4-4ZM8 17h4v-2H8a2 2 0 0 1-2-2v-1H4v1a4 4 0 0 0 4 4Z" fill="currentColor"/></symbol>
  <symbol id="ss-template" viewBox="0 0 24 24"><path d="M6 3h9l5 5v13H6a2 2 0 0 1-2-2V5a2 2 0 0 1 2-2Zm8 1.5V9h4.5L14 4.5ZM8 12h8v2H8v-2Zm0 4h6v2H8v-2Z" fill="currentColor"/></symbol>
  <symbol id="ss-log" viewBox="0 0 24 24"><path d="M6 3h12a2 2 0 0 1 2 2v16l-3-2-3 2-3-2-3 2-4-2.7V5a2 2 0 0 1 2-2Zm3 5h6V6H9v2Zm0 5h8v-2H9v2Zm0 4h5v-2H9v2Z" fill="currentColor"/></symbol>
  <symbol id="ss-users" viewBox="0 0 24 24"><path d="M9 11a4 4 0 1 0 0-8 4 4 0 0 0 0 8Zm6.5 1a3.5 3.5 0 1 0 0-7 5.7 5.7 0 0 1 .5 2.3 5.7 5.7 0 0 1-1.6 4l1.1.7ZM2 20a7 7 0 0 1 14 0v1H2v-1Zm14.5 1H22v-1a5.5 5.5 0 0 0-4.4-5.4 8.8 8.8 0 0 1 1 4.1V21Z" fill="currentColor"/></symbol>
  <symbol id="ss-ima" viewBox="0 0 24 24"><path d="M5 4h10a4 4 0 0 1 4 4v12H7a2 2 0 0 1-2-2V4Zm3 4h8V6H8v2Zm0 4h8v-2H8v2Zm0 4h6v-2H8v2Z" fill="currentColor"/></symbol>
  <symbol id="ss-llm" viewBox="0 0 24 24"><path d="M12 2 4 6.5v9L12 20l8-4.5v-9L12 2Zm0 3.2 4.8 2.7L12 10.6 7.2 7.9 12 5.2ZM6 10.2l5 2.8v3.9l-5-2.8v-3.9Zm7 6.7V13l5-2.8v3.9l-5 2.8Z" fill="currentColor"/></symbol>
  <symbol id="ss-github" viewBox="0 0 24 24"><path fill-rule="evenodd" clip-rule="evenodd" d="M12 2a10 10 0 0 0-3.2 19.5c.5.1.7-.2.7-.5v-1.8c-2.9.6-3.5-1.2-3.5-1.2-.5-1.1-1.1-1.4-1.1-1.4-.9-.6.1-.6.1-.6 1 0 1.6 1.1 1.6 1.1.9 1.5 2.4 1.1 3 .8.1-.7.4-1.1.7-1.4-2.3-.3-4.7-1.2-4.7-5A3.9 3.9 0 0 1 6.6 8.8c-.1-.3-.5-1.3.1-2.7 0 0 .9-.3 2.8 1a9.7 9.7 0 0 1 5 0c1.9-1.3 2.8-1 2.8-1 .6 1.4.2 2.4.1 2.7a3.9 3.9 0 0 1 1 2.7c0 3.9-2.4 4.8-4.7 5 .4.3.8 1 .8 2V21c0 .3.2.6.8.5A10 10 0 0 0 12 2Z" fill="currentColor"/></symbol>
  <symbol id="ss-search" viewBox="0 0 24 24"><path d="M10.5 4a6.5 6.5 0 0 1 5.1 10.5l4 4-1.4 1.4-4-4A6.5 6.5 0 1 1 10.5 4Zm0 2a4.5 4.5 0 1 0 0 9 4.5 4.5 0 0 0 0-9Z" fill="currentColor"/></symbol>
  <symbol id="ss-requirement" viewBox="0 0 24 24"><path d="M10 4a6 6 0 1 0 3.5 10.9l3.8 3.8 1.4-1.4-3.8-3.8A6 6 0 0 0 10 4Zm0 2a4 4 0 1 1 0 8 4 4 0 0 1 0-8Z" fill="currentColor"/></symbol>
  <symbol id="ss-solution" viewBox="0 0 24 24"><path d="M12 2a7 7 0 0 0-4 12.7V18h8v-3.3A7 7 0 0 0 12 2Zm-3 18h6v2H9v-2Zm3-15a4 4 0 0 0-2 7.5l1 .6V16h2v-2.9l1-.6A4 4 0 0 0 12 5Z" fill="currentColor"/></symbol>
  <symbol id="ss-architecture" viewBox="0 0 24 24"><path d="M12 2 4 6v12l8 4 8-4V6l-8-4Zm0 2.2L17.5 7 12 9.8 6.5 7 12 4.2ZM6 8.8l5 2.5v7.9l-5-2.5V8.8Zm7 10.4v-7.9l5-2.5v7.9l-5 2.5Z" fill="currentColor"/></symbol>
  <symbol id="ss-ppt" viewBox="0 0 24 24"><path d="M4 4h16v12H4V4Zm2 2v8h12V6H6Zm5 12h2v2h4v2H7v-2h4v-2Z" fill="currentColor"/></symbol>
  <symbol id="ss-word-file" viewBox="0 0 24 24"><path d="M5 3h10l4 4v14H5V3Zm3 8 1.5 6H12l1-3.6 1 3.6h2.5L18 9h-2l-.8 5-.9-5h-2.4l-.9 5-.8-5H8v2Z" fill="currentColor"/></symbol>
  <symbol id="ss-pdf-file" viewBox="0 0 24 24"><path d="M5 3h10l4 4v14H5V3Zm4 8v6h1.5v-2h1a2 2 0 0 0 0-4H9Zm4.5 0v6H16a3 3 0 0 0 0-6h-2.5Zm-3 1.4h.8a.6.6 0 0 1 0 1.2h-.8v-1.2Zm4.5 0h.8c1 0 1.5.7 1.5 1.6s-.5 1.6-1.5 1.6H15v-3.2Z" fill="currentColor"/></symbol>
  <symbol id="ss-ppt-file" viewBox="0 0 24 24"><path d="M5 3h10l4 4v14H5V3Zm4 8v6h1.5v-2h1.2a2 2 0 1 0 0-4H9Zm1.5 1.4h1a.6.6 0 0 1 0 1.2h-1v-1.2ZM14 11h3.5v1.5H16V17h-1.5v-4.5H13V11h1Z" fill="currentColor"/></symbol>
  <symbol id="ss-status-dot" viewBox="0 0 24 24"><circle cx="12" cy="12" r="6" fill="currentColor"/></symbol>
</svg>
